<?xml version="1.0" encoding="iso-8859-1"?>
<!-- Generator: Adobe Illustrator 18.0.0, SVG Export Plug-In . SVG Version: 6.00 Build 0)  -->
<!DOCTYPE svg PUBLIC "-//W3C//DTD SVG 1.1//EN" "http://www.w3.org/Graphics/SVG/1.1/DTD/svg11.dtd">
<svg version="1.1" id="Capa_1" xmlns="http://www.w3.org/2000/svg" xmlns:xlink="http://www.w3.org/1999/xlink" x="0px" y="0px"
	 viewBox="0 0 125 125" style="enable-background:new 0 0 125 125;" xml:space="preserve">
<g>
	<g>
		<circle style="fill:#FA6A5D;" cx="62.5" cy="62.5" r="62.5"/>
	</g>
	<g>
		<g>
			<g>
				<path style="fill:#F4901E;" d="M100.021,35.901c-1.972-7.123-9.344-11.299-16.468-9.328l-0.986-3.564
					c9.092-2.516,18.502,2.814,21.019,11.906c2.517,9.092-2.814,18.502-11.906,21.018l-0.986-3.565
					C97.815,50.397,101.991,43.024,100.021,35.901z"/>
			</g>
			<g>
				<path style="fill:#F8AD3B;" d="M100.021,35.901c1.971,7.123-2.205,14.496-9.328,16.467l-7.14-25.795
					C90.677,24.602,98.049,28.778,100.021,35.901z"/>
			</g>
		</g>
		<g>
			<polygon style="fill:#FFFFFF;" points="62.751,75.91 96.71,39.678 28.791,39.678 62.751,75.91 96.71,39.678 28.791,39.678 			"/>
		</g>
		<g>
			<polygon style="fill:#FFFFFF;" points="62.751,91.216 78.655,102.615 46.847,102.615 62.751,91.216 78.655,102.615 
				46.847,102.615 			"/>
		</g>
		<g>
			<rect x="59.964" y="70.8" style="fill:#FFFFFF;" width="5.574" height="22.946"/>
		</g>
		<g>
			
				<rect x="51.961" y="20.873" transform="matrix(-0.9151 0.4033 -0.4033 -0.9151 120.6456 65.6842)" style="fill:#F4901E;" width="2.891" height="49.346"/>
		</g>
		<g>
			<g>
				<path style="fill:#F8AD3B;" d="M59.979,67.605L40.461,46.781h44.58L65.523,67.605C64.022,69.206,61.479,69.206,59.979,67.605z"
					/>
			</g>
		</g>
	</g>
</g>
<g>
</g>
<g>
</g>
<g>
</g>
<g>
</g>
<g>
</g>
<g>
</g>
<g>
</g>
<g>
</g>
<g>
</g>
<g>
</g>
<g>
</g>
<g>
</g>
<g>
</g>
<g>
</g>
<g>
</g>
</svg>
